<?xml version="1.0" encoding="UTF-8"?>
<svg id="Layer_2" data-name="Layer 2" xmlns="http://www.w3.org/2000/svg" xmlns:xlink="http://www.w3.org/1999/xlink" viewBox="0 0 121.8 134.86">
  <defs>
    <style>
      .cls-1 {
        clip-path: url(#clippath);
      }

      .cls-2 {
        fill: #f55454;
      }

      .cls-3 {
        fill: #fff;
      }

      .cls-4 {
        fill: #feb13a;
      }

      .cls-5 {
        fill: #15406c;
      }
    </style>
    <clipPath id="clippath">
      <path class="cls-2" d="M93.38,0C94.87,0,96.32,.24,97.66,.69c5.48,1.8,9.43,6.95,9.43,13.03,0,7.57-6.14,13.71-13.71,13.71h27.43C120.8,12.28,108.52,0,93.38,0Z"/>
    </clipPath>
  </defs>
  <g id="Layer_1-2" data-name="Layer 1">
    <g>
      <g>
        <path class="cls-2" d="M93.38,0C94.87,0,96.32,.24,97.66,.69c5.48,1.8,9.43,6.95,9.43,13.03,0,7.57-6.14,13.71-13.71,13.71h27.43C120.8,12.28,108.52,0,93.38,0Z"/>
        <g class="cls-1">
          <path class="cls-4" d="M96.18,0c1.56,0,3.06,.25,4.46,.71,5.7,1.88,9.82,7.25,9.82,13.57,0,7.89-6.4,14.28-14.28,14.28s-14.29-6.4-14.29-14.28S88.29,0,96.18,0Z"/>
        </g>
      </g>
      <path class="cls-3" d="M93.38,0c-.36,0-.71,.03-1.07,.05,.12,0,.24-.03,.36-.04-14.82,.37-26.72,12.5-26.72,27.41,0,4.23,.98,8.4,2.86,12.19-3.95,1.23-7.56,3.32-10.59,6.14l-18.35,17.1h-.01s-1.97,1.84-1.97,1.84c-5.18,5.31-8.01,12.51-7.78,19.99L0,111.27H22.79s34.73,0,34.73,0c8.35,0,16.25-3.8,21.45-10.33l14.22-13.05h.02s4.28-3.93,4.28-3.93c6.3-7.14,8.53-17.2,5.53-26.53l-1.25-3.88s0,0,0,0l-8.08-25.11h28.1v-.97C121.8,12.32,109.05,0,93.38,0Zm7.13,52.87c-2.32,.65-4.72,.98-7.14,.98-1.91,0-3.83-.21-5.69-.62l-.5-.11-.38,.34L22.41,110.27H2.64l28.13-24.83,.36-.31-.02-.47c-.22-7.14,2.51-14.16,7.46-19.23l1.98-1.84,18.35-17.1c2.9-2.7,6.43-4.74,10.21-5.91l1.12-.35-.52-1.05c-1.81-3.63-2.76-7.7-2.76-11.75,0-11.01,6.77-20.47,16.36-24.44-2.86,2.69-4.65,6.5-4.65,10.73,0,7.86,6.21,14.31,13.98,14.69l7.87,24.46Zm1.26-25.41h-8.38c7.56,0,13.7-5.94,13.7-13.24,0-.09,0-.18-.01-.27,0-.08,.01-.15,.01-.23,0-5.13-2.82-9.59-6.99-11.95,11.9,2.9,20.71,13.3,20.71,25.69h-19.03Z"/>
      <path class="cls-5" d="M89.04,19.72l-2.79-4.18,4.83-3.98c3.28-2.7,8.16-2.1,10.68,1.33h0s-12.73,6.83-12.73,6.83Z"/>
      <path class="cls-5" d="M100.51,52.87c-2.32,.65-4.72,.98-7.14,.98-1.91,0-3.83-.21-5.69-.62l-.5-.11-.38,.34L22.41,110.27H2.64l28.13-24.83,.36-.31-.02-.47c-.22-7.14,2.51-14.16,7.46-19.23l1.98-1.84,18.35-17.1c2.9-2.7,6.43-4.74,10.21-5.91l1.12-.35-.52-1.05c-1.81-3.63-2.76-7.7-2.76-11.75,0-11.01,6.77-20.47,16.36-24.44-2.86,2.69-4.65,6.5-4.65,10.73,0,7.86,6.21,14.31,13.98,14.69l7.87,24.46Z"/>
      <path class="cls-3" d="M83.89,133.52c-1.16-7.69-7.88-13.49-15.64-13.49-1.07,0-2.15,.11-3.21,.33l-12.26,2.52-.89,.18,.09,.9,1.03,9.99,.09,.91h.91s28.89-.19,28.89-.19h1.16s-.17-1.15-.17-1.15Zm-29.89,.33l-1.02-9.99,12.26-2.52c1.01-.21,2.02-.31,3.01-.31,7.18,0,13.54,5.25,14.65,12.64l-28.9,.18Z"/>
      <path class="cls-2" d="M82.9,133.67l-28.9,.18-1.02-9.99,12.26-2.52c1.01-.21,2.02-.31,3.01-.31,7.18,0,13.54,5.25,14.65,12.64Z"/>
    </g>
  </g>
</svg>